<?xml version="1.0" encoding="utf-8"?>
<!-- Generator: Adobe Illustrator 16.0.0, SVG Export Plug-In . SVG Version: 6.00 Build 0)  -->
<!DOCTYPE svg PUBLIC "-//W3C//DTD SVG 1.1//EN" "http://www.w3.org/Graphics/SVG/1.1/DTD/svg11.dtd">
<svg version="1.1" id="Layer_1" xmlns="http://www.w3.org/2000/svg" xmlns:xlink="http://www.w3.org/1999/xlink" x="0px" y="0px"
	 width="800px" height="229.891px" viewBox="18.046 0 800 229.891" enable-background="new 18.046 0 800 229.891"
	 xml:space="preserve">
<path fill="#291770" d="M434.251,3.488c18.969,0,36.833,4.865,52.421,13.406c0.259,23.87-2.729,46.026-8.437,65.085
	c-2.863,9.565-6.502,18.669-10.603,27.521c-5.989,12.935-13.746,25.072-23.102,35.914c-41.364,6.036-78.874,6.012-114.188,2.533
	c-3.687-10.95-5.69-22.664-5.69-34.831C324.656,52.737,373.889,3.488,434.251,3.488"/>
<path fill="#291770" d="M202.232,110.542c0-2.166,0.059-3.599,0-5.764c-0.145-5.444,4.732-13.806,12.787-13.973
	c5.907-0.125,10.964-2.024,10.938-8.993c-0.032-8.637-5.42-10.234-10.987-9.993c-11.66,0.507-17.805,5.563-23.225,11.242
	c-6.147,6.439-8.74,14.705-8.74,21.187v52.157c0,5.266,4.351,9.616,9.615,9.616c5.288,0,9.615-4.329,9.615-9.616"/>
<path fill="#291770" d="M81.151,90.661H57.302v1.864v35.107c0,2.166,0.059,3.598,0,5.764c-0.147,5.444,4.732,13.806,12.787,13.972
	c5.907,0.124,10.963,2.024,10.937,8.995c-0.033,8.636-5.421,10.232-10.987,9.993c-11.659-0.508-17.804-5.564-23.224-11.242
	c-6.149-6.44-8.74-14.705-8.74-21.188v-15.971v-24.37v-2.922h-7.368c-5.265,0-9.615-4.353-9.615-9.618
	c0-5.29,4.327-9.618,9.615-9.618h7.368V55.814c0-5.266,4.351-9.618,9.615-9.618c5.288,0,9.615,4.329,9.615,9.618v15.613h23.849
	c5.264,0,9.616,4.351,9.616,9.618C90.765,86.333,86.439,90.661,81.151,90.661"/>
<path fill="#291770" d="M93.98,112.677V80.935c0-5.045,4.167-9.211,9.208-9.211c5.065,0,9.208,4.147,9.208,9.211v43.179
	c0,10.511,9.165,23.197,21.968,23.299c12.804,0.103,22.412-8.674,22.412-24.193V80.823c0-4.988,3.585-8.858,9.319-8.654
	c4.743,0.167,9.541,0.625,9.541,9.322v43.95c0,12.145-4.84,22.04-11.54,28.41c-9.781,9.302-19.117,12.418-29.068,12.209
	c-10.87-0.231-20.976-3.027-29.513-11.985c-9.441-9.909-11.54-20.681-11.54-31.742"/>
<path fill="#E87817" d="M569.271,125.115v31.742c0,5.044,4.167,9.21,9.209,9.21c5.065,0,9.207-4.146,9.207-9.21v-43.178
	c0-10.511,9.164-23.199,21.967-23.301c12.805-0.102,22.412,8.674,22.412,24.194v42.397c0,4.989,3.588,8.858,9.319,8.655
	c4.742-0.168,9.542-0.626,9.542-9.321v-43.95c0-12.146-4.84-22.041-11.539-28.411c-9.783-9.302-19.117-12.419-29.068-12.208
	c-10.871,0.23-20.975,3.026-29.513,11.985c-9.439,9.909-11.538,20.68-11.538,31.74"/>
<path fill="#E87817" d="M808.666,90.661h-23.853v1.864v35.107c0,2.166,0.061,3.598,0,5.764c-0.146,5.444,4.732,13.806,12.787,13.972
	c5.908,0.124,10.964,2.024,10.938,8.995c-0.031,8.636-5.42,10.232-10.987,9.993c-11.66-0.508-17.804-5.564-23.226-11.242
	c-6.146-6.44-8.74-14.705-8.74-21.188v-15.971v-24.37v-2.922h-7.367c-5.265,0-9.614-4.353-9.614-9.618
	c0-5.29,4.326-9.618,9.614-9.618h7.367V55.814c0-5.266,4.352-9.618,9.615-9.618c5.288,0,9.614,4.329,9.614,9.618v15.613h23.852
	c5.264,0,9.615,4.351,9.615,9.618C818.281,86.333,813.952,90.661,808.666,90.661"/>
<path fill="#E87817" d="M419.347,71.234l3.258,12.488l15.033-3.958c2.577-0.678,3.735,0.668,3.803,2.964
	c0.042,1.453-0.419,2.86-2.267,4.257l-12.18,9.226l4.957,11.069c0.75,1.675,0.274,3.737-1.423,5.385
	c-1.336,1.298-3.74,1.57-5.651,0.411l-10.227-6.199l-12.018,11.757c-1.39,1.361-3.904,1.475-5.522,0.284
	c-1.613-1.186-1.171-3.072-0.567-4.541l5.382-13.056l-11.613-4.4c-1.744-0.659-3.426-1.676-3.116-3.833
	c0.328-2.278,2.118-4.369,5.947-4.825l14.304-1.704l3.975-15.202c0.498-1.91,2.256-2.938,4.383-2.823
	C417.557,68.631,418.781,69.06,419.347,71.234"/>
<path fill="#291770" d="M242.221,46.03c5.078,0,9.232,4.155,9.232,9.235v49.708l28.347-30.745c3.428-3.715,9.481-3.575,13.056,0
	c3.59,3.593,3.442,9.329,0,13.06l-23.635,25.632l32.826,38.687c3.272,3.855,2.394,9.85-1.591,12.964
	c-4,3.126-9.674,2.28-12.958-1.592l-30.878-36.39l-5.168,5.604v25.366c0,5.055-4.178,9.235-9.233,9.235
	c-5.078,0-9.232-4.155-9.232-9.235V55.263C232.989,50.207,237.167,46.03,242.221,46.03"/>
<path fill="#E87817" d="M738.87,130.22c3.804,0.54,7.787,2.306,8.06,9.597c0.214,5.705-5.352,11.584-12.357,17.085
	c-8.7,6.831-18.422,8.999-28.708,9.022c-13.373,0.03-23.607-4.85-31.662-12.478c-12.08-11.438-14.535-22.288-15.352-32.632
	c-0.721-9.106,1.161-19.267,8.441-29.369c8.457-11.733,21.037-19.859,38.763-20.079c6.681-0.083,13.254,1.001,19.505,3.686
	c5.87,2.523,11.456,6.459,16.571,12.169c3.323,3.711,5.035,7.801,4.987,11.709c-0.036,3.346-2.324,5.688-4.987,7.294
	c-18.311,11.045-36.972,21.5-55.458,32.25c5.952,6.237,12.327,8.562,18.998,8.445c8.221-0.141,16.511-1.973,23.795-11.519
	C731.486,132.759,733.513,129.458,738.87,130.22 M678.588,121.2l43.563-25.567c-5.645-4.046-11.479-5.275-17.368-4.889
	c-9.706,0.637-16.353,4.829-21.354,11.245C678.836,107.89,677.88,114.796,678.588,121.2z"/>
<path fill="#E87817" d="M339.136,167.466c-2.056-3.582-3.917-7.286-5.564-11.105c33.638,2.707,67.34,3.699,100.903-1.079
	c0.269-0.039,0.537-0.078,0.809-0.116c-11.373,11.447-24.006,20.922-37.576,28.822c-0.25,0.145-0.498,0.29-0.747,0.433
	C377.507,181.296,358.268,175.767,339.136,167.466 M366.064,198.834c-6.444-5.146-12.3-10.998-17.446-17.441
	c12.072,3.848,24.206,6.964,36.429,9.321C378.655,193.807,372.354,196.429,366.064,198.834z M444.776,222.242
	c-3.465,0.335-6.975,0.507-10.524,0.507c-21.73,0-42.014-6.383-59.081-17.371c8.231-3.887,16.064-8.011,23.545-12.347
	c12.262,1.788,24.621,2.818,37.104,3.067c12.224,0.243,24.119-0.629,35.726-2.366C463.684,203.741,454.774,213.21,444.776,222.242z
	 M519.677,181.647c-14.794,18.413-35.391,31.974-58.972,37.86c8.038-9.046,15.6-18.29,22.498-27.829
	C495.671,189.171,507.814,185.72,519.677,181.647z M478.622,184.156c-14.49,2.714-28.117,3.406-41.01,3.42
	c-9.26,0.011-18.457-0.451-27.604-1.418c8.447-5.392,16.427-11.064,24.016-16.971c5.448-5.228,10.666-10.662,15.586-16.352
	c18.772-3.408,36.434-8.083,52.652-14.226c-0.724,1.917-1.466,3.826-2.226,5.73C494.348,158.57,487.228,171.775,478.622,184.156z
	 M543.761,117.333c-0.667,17.495-5.47,33.958-13.448,48.446c-14.084,7.533-27.439,12.528-40.144,15.808
	c6.171-9.391,11.668-19.086,16.325-29.174c2.912-6.311,5.415-12.522,7.557-18.646C524.707,129.031,534.647,123.577,543.761,117.333z
	 M524.538,51.107c10.986,15.947,17.875,34.926,19.104,55.388c-8.085,6.301-16.819,11.705-26.123,16.355
	C524.64,97.918,525.968,74.334,524.538,51.107z M495.773,22.473c6.673,4.551,12.818,9.819,18.332,15.691
	c5.943,31.528,1.427,61.359-8.104,89.944c-14.782,6.159-30.813,10.714-47.844,14.162c8.588-11.396,15.95-23.83,21.605-37.671
	C490.906,77.316,494.093,49.852,495.773,22.473z"/>
<path fill="#E87817" d="M400.8,23.044l2.376,5.149l9.027-3.644c2.545-1.029,4.589,1.209,2.851,2.456l-8.71,6.259l2.612,3.485
	c2.086,2.78-1.813,5.436-5.561,4.491l-5.567-1.403l-8.591,7.368c-2.571,2.204-4.465,0.113-3.643-1.427l3.722-6.97h-7.918
	c-2.614,0-2.203-3.474,0.713-4.278l11.483-3.168l1.609-6.836C395.726,22.307,399.899,21.092,400.8,23.044"/>
<path fill="#E87817" d="M361.717,90.727l-3.581-3.511l3.194-8.661c0.67-1.82-1.212-3.315-2.414-1.716l-4.048,5.385l-3.504-5.15
	c-0.987-1.451-2.954,0.342-2.57,2.575l1.323,7.726l-5.216,4.836c-1.867,1.731-0.569,3.923,1.323,3.824l4.438-0.234l0.624,7.879
	c0.097,1.23,2.286,1.808,2.724-0.232l1.791-8.349h5.917C363.202,95.095,362.924,91.909,361.717,90.727"/>
</svg>
